Coordinates
version=1
nRows=20
nColumns=38
inDegrees=no

Units are S.I. units (second, meters, Newtons, ...)
If the header above contains a line with 'inDegrees', this indicates whether rotational values are in degrees (yes) or radians (no).

endheader
time	pelvis_tilt	pelvis_list	pelvis_rotation	pelvis_tx	pelvis_ty	pelvis_tz	hip_flexion_r	hip_adduction_r	hip_rotation_r	knee_angle_r	ankle_angle_r	subtalar_angle_r	mtp_angle_r	hip_flexion_l	hip_adduction_l	hip_rotation_l	knee_angle_l	ankle_angle_l	subtalar_angle_l	mtp_angle_l	lumbar_extension	lumbar_bending	lumbar_rotation	arm_flex_r	arm_add_r	arm_rot_r	elbow_flex_r	pro_sup_r	wrist_flex_r	wrist_dev_r	arm_flex_l	arm_add_l	arm_rot_l	elbow_flex_l	pro_sup_l	wrist_flex_l	wrist_dev_l
1.37	2.89951	1.49171	-1.34685	0.744549	0.583051	1.00859	0.428163	-0.153143	-0.355313	0.6024	-0.00438485	0	0	-0.133849	0.0318652	-0.225054	0.246742	0.201508	0	0	-0.331221	-0.00146127	0.0569091	0.0935944	-0.222455	0.0969648	0.338368	1.30565	0	0	0.143449	-0.220739	0.32711	0.374224	1.3121	0	0
1.38	2.80592	1.48791	-1.25353	0.74556	0.590377	1.00834	0.417354	-0.137508	-0.380397	0.557399	-0.00382254	0	0	-0.145393	0.0225096	-0.225564	0.244055	0.205817	0	0	-0.337042	0.00735222	0.0589284	0.0972592	-0.22322	0.0978761	0.338467	1.30684	0	0	0.14592	-0.219043	0.319943	0.373439	1.31964	0	0
1.39	2.70566	1.47656	-1.15353	0.746792	0.597883	1.00867	0.396512	-0.114586	-0.40363	0.505628	-0.00643966	0	0	-0.164215	0.00789037	-0.229068	0.240351	0.210844	0	0	-0.349622	0.0203033	0.0618538	0.100435	-0.226726	0.114386	0.342912	1.28489	0	0	0.149671	-0.214858	0.299481	0.369311	1.34584	0	0
1.4	2.67626	1.47596	-1.12453	0.748176	0.605795	1.00789	0.383468	-0.0944302	-0.403078	0.449228	-0.0059375	0	0	-0.175086	0.00383019	-0.22935	0.236058	0.215258	0	0	-0.351127	0.0222049	0.0624666	0.10138	-0.225551	0.115936	0.34369	1.2816	0	0	0.149028	-0.217341	0.301126	0.372555	1.3424	0	0
1.41	2.58839	1.46602	-1.03873	0.749801	0.613132	1.00811	0.371703	-0.0770495	-0.437384	0.414984	-0.0056494	0	0	-0.190507	-0.0113227	-0.234359	0.233529	0.220424	0	0	-0.361692	0.0340153	0.068161	0.107392	-0.223946	0.0980205	0.339942	1.30862	0	0	0.151809	-0.217819	0.30648	0.37559	1.33168	0	0
1.42	2.57716	1.46596	-1.02739	0.751362	0.621406	1.00717	0.359984	-0.0602587	-0.436537	0.366233	-0.00102161	0	0	-0.201588	-0.0140885	-0.234814	0.229823	0.225238	0	0	-0.362381	0.033924	0.0677954	0.107564	-0.221932	0.0987336	0.340215	1.30808	0	0	0.150555	-0.221102	0.30905	0.378257	1.32848	0	0
1.43	2.53534	1.46396	-0.987665	0.753155	0.629366	1.00653	0.351361	-0.0441867	-0.447819	0.327958	0.00432972	0	0	-0.211618	-0.0209932	-0.238945	0.227718	0.229666	0	0	-0.364614	0.0372952	0.0708991	0.108858	-0.22088	0.100025	0.340515	1.30684	0	0	0.150879	-0.222985	0.311737	0.379419	1.32564	0	0
1.44	2.49418	1.46196	-0.947805	0.754964	0.637574	1.00584	0.34221	-0.0278573	-0.455836	0.290925	0.0102204	0	0	-0.221504	-0.0279113	-0.243008	0.22562	0.23364	0	0	-0.36603	0.04091	0.0734296	0.109034	-0.219954	0.101566	0.341374	1.305	0	0	0.150719	-0.224858	0.315516	0.379902	1.32293	0	0
1.45	2.45864	1.45983	-0.911388	0.756639	0.646019	1.00509	0.332405	-0.0128036	-0.463137	0.256515	0.0172391	0	0	-0.231306	-0.0348745	-0.245356	0.224331	0.237238	0	0	-0.367069	0.0449481	0.0740529	0.108254	-0.219075	0.103048	0.342917	1.30275	0	0	0.149758	-0.226878	0.319648	0.38117	1.32028	0	0
1.46	2.42935	1.45739	-0.879644	0.758191	0.654697	1.00433	0.322228	0.000796991	-0.470247	0.226328	0.0241972	0	0	-0.241106	-0.0419191	-0.246207	0.224103	0.240946	0	0	-0.368002	0.0494093	0.0734817	0.10657	-0.218527	0.104855	0.345204	1.29982	0	0	0.148233	-0.228877	0.32316	0.3833	1.31726	0	0
1.47	2.40529	1.45539	-0.853505	0.759749	0.663639	1.00349	0.312915	0.0126651	-0.475313	0.201603	0.030893	0	0	-0.250499	-0.0482232	-0.247837	0.225166	0.244849	0	0	-0.368154	0.0533189	0.0733403	0.10373	-0.218395	0.106921	0.348003	1.29633	0	0	0.146152	-0.230487	0.326092	0.385249	1.31397	0	0
1.48	2.38662	1.45468	-0.83227	0.761223	0.672771	1.00253	0.305723	0.0214094	-0.47968	0.184214	0.0374212	0	0	-0.258547	-0.0532481	-0.248817	0.227592	0.248159	0	0	-0.367043	0.0563651	0.0726598	0.100054	-0.2185	0.109089	0.350672	1.29221	0	0	0.143617	-0.231688	0.328597	0.386676	1.31063	0	0
1.49	2.37189	1.45386	-0.813987	0.762598	0.682115	1.00157	0.299192	0.0282766	-0.482783	0.173456	0.0418151	0	0	-0.266333	-0.0582986	-0.248371	0.231071	0.250712	0	0	-0.365802	0.0596883	0.0713276	0.0955151	-0.219365	0.113925	0.353894	1.28539	0	0	0.140498	-0.232844	0.332323	0.388621	1.30513	0	0
1.5	2.36066	1.4536	-0.798529	0.763865	0.691665	1.00055	0.294524	0.0323182	-0.484682	0.171266	0.0421285	0	0	-0.273155	-0.0630742	-0.247199	0.236186	0.253229	0	0	-0.363928	0.0628194	0.0696578	0.0908275	-0.219026	0.108069	0.355349	1.2934	0	0	0.138164	-0.23199	0.328969	0.386539	1.31255	0	0
1.51	2.35467	1.45421	-0.787508	0.76505	0.701394	0.999436	0.291938	0.0329083	-0.485547	0.178142	0.0373185	0	0	-0.278728	-0.0672216	-0.244686	0.243087	0.255545	0	0	-0.361281	0.0652157	0.0673577	0.084718	-0.218928	0.103682	0.358165	1.29735	0	0	0.134892	-0.231732	0.327396	0.386078	1.31671	0	0
1.52	2.35089	1.45572	-0.778365	0.766251	0.711312	0.998192	0.291513	0.0305881	-0.487813	0.193194	0.0306298	0	0	-0.282456	-0.0710557	-0.241723	0.252715	0.258091	0	0	-0.357655	0.0667435	0.0649833	0.0764827	-0.218957	0.0987172	0.363486	1.30081	0	0	0.130477	-0.231928	0.325405	0.387478	1.32089	0	0
1.53	2.34836	1.45744	-0.769306	0.767378	0.721475	0.996881	0.291685	0.0263956	-0.491772	0.21168	0.0279902	0	0	-0.284655	-0.075405	-0.238088	0.265211	0.260805	0	0	-0.353324	0.0684594	0.0618174	0.0661089	-0.219267	0.0934744	0.371281	1.30399	0	0	0.125237	-0.232374	0.324079	0.389768	1.325	0	0
1.54	2.3455	1.45829	-0.75888	0.768485	0.731832	0.995645	0.291611	0.0220657	-0.497803	0.230855	0.0264458	0	0	-0.285684	-0.0814091	-0.233829	0.281239	0.263415	0	0	-0.349139	0.0711906	0.0582557	0.0542205	-0.219917	0.0887332	0.38093	1.30712	0	0	0.119805	-0.232846	0.323853	0.391882	1.32897	0	0
1.55	2.34286	1.45667	-0.747563	0.7696	0.742362	0.994683	0.289274	0.0193773	-0.505965	0.24714	0.0155113	0	0	-0.286744	-0.0903696	-0.229811	0.300526	0.265119	0	0	-0.346486	0.0759951	0.0544421	0.0415669	-0.220486	0.0834045	0.391327	1.3103	0	0	0.113965	-0.233475	0.323995	0.394643	1.33296	0	0
1.56	2.32923	1.45332	-0.726498	0.770923	0.75272	0.99408	0.28775	0.0184296	-0.515723	0.263483	-0.00775584	0	0	-0.286121	-0.102182	-0.226921	0.323217	0.264532	0	0	-0.344912	0.0825457	0.0525495	0.0295706	-0.221345	0.0791332	0.401713	1.31367	0	0	0.108707	-0.233722	0.323738	0.397624	1.3372	0	0
